<svg width="750" height="1624" viewBox="0 0 750 1624" fill="none" xmlns="http://www.w3.org/2000/svg">
<defs><clipPath id="screen"><path d="M155.28 0.0038418C160.58 0.149513 164.85 4.41966 164.996 9.72009L165 10L165.001 22.1258L165.008 23.2791C165.117 34.404 166.301 39.2122 168.442 43.5552L168.663 43.9954L169.007 44.6527C171.622 49.5416 175.458 53.3784 180.347 55.993L181.005 56.3369C185.614 58.6921 190.528 59.96 202.865 59.9991H547.135L548.288 59.9916C559.407 59.8821 564.213 58.6988 568.555 56.5579L568.995 56.3369L569.653 55.993C574.542 53.3784 578.378 49.5416 580.993 44.6527L581.337 43.9954C583.692 39.3856 584.96 34.4718 584.999 22.1348L585 10L585.004 9.72009C585.147 4.51265 589.271 0.29966 594.442 0.0153004L594.72 0.0038418L595 0H652.572L654.579 0.0042294C686.942 0.142333 698.983 3.65985 711.12 10.151C723.505 16.7747 733.225 26.4947 739.849 38.8799L740.243 39.623C746.612 51.7651 750 64.2275 750 97.4276V1526.57C750 1560.45 746.473 1572.73 739.849 1585.12C733.225 1597.51 723.505 1607.23 711.12 1613.85L710.377 1614.24C698.235 1620.61 685.773 1624 652.572 1624H97.4276L95.4207 1624C63.0585 1623.86 51.0173 1620.34 38.8799 1613.85C26.4947 1607.23 16.7747 1597.51 10.151 1585.12L9.75734 1584.38C3.38769 1572.23 0 1559.77 0 1526.57V97.4276L0.0042294 95.4207C0.142333 63.0585 3.65985 51.0173 10.151 38.8799C16.7747 26.4947 26.4947 16.7747 38.8799 10.151L39.623 9.75734C51.7651 3.38769 64.2275 0 97.4276 0H155L155.28 0.0038418Z" />
</clipPath></defs>
</svg>
